<svg xmlns="http://www.w3.org/2000/svg" viewBox="0 0 512 512">
<path d="M256.00 46.00C193.88 91.39 151.38 108.93 77.26 126.19C57.93 232.70 93.90 410.36 256.00 466.00C328.87 440.99 376.25 391.32 404.58 334.53L350.04 301.49C330.73 340.52 300.20 376.84 256.00 392.60C150.48 354.96 122.89 200.21 139.79 171.05C196.23 154.41 208.00 144.15 256.00 119.40C304.00 144.15 315.77 154.41 372.21 171.05C378.06 181.13 378.58 206.24 372.40 236.32L428.33 270.22C441.42 219.02 442.20 167.31 434.74 126.19C360.62 108.93 318.12 91.39 256.00 46.00Z M256.00 184.64C236.09 200.32 219.74 206.08 196.87 214.54C200.18 254.88 185.21 271.14 256.00 321.92C326.79 271.14 311.82 254.88 315.13 214.54C292.26 206.08 275.91 200.32 256.00 184.64Z" fill="#008080"/>
</svg>
