<svg xmlns="http://www.w3.org/2000/svg" viewBox="-24.0 -24.0 981.0 248.0">
<svg x="0.0" y="0.0" width="173.1" height="200.0" viewBox="74.3 46.0 363.5 420.0">
<defs><linearGradient id="cv" gradientUnits="userSpaceOnUse" x1="118.0" y1="60.0" x2="420.0" y2="430.0"><stop offset="0.0" stop-color="#2DB3A4"/><stop offset="0.38" stop-color="#25A699"/><stop offset="0.68" stop-color="#1A847F"/><stop offset="1.0" stop-color="#155D5B"/></linearGradient></defs>
<path d="M256.00 46.00C193.88 91.39 151.38 108.93 77.26 126.19C57.93 232.70 93.90 410.36 256.00 466.00C328.87 440.99 376.25 391.32 404.58 334.53L350.04 301.49C330.73 340.52 300.20 376.84 256.00 392.60C150.48 354.96 122.89 200.21 139.79 171.05C196.23 154.41 208.00 144.15 256.00 119.40C304.00 144.15 315.77 154.41 372.21 171.05C378.06 181.13 378.58 206.24 372.40 236.32L428.33 270.22C441.42 219.02 442.20 167.31 434.74 126.19C360.62 108.93 318.12 91.39 256.00 46.00Z M256.00 184.64C236.09 200.32 219.74 206.08 196.87 214.54C200.18 254.88 185.21 271.14 256.00 321.92C326.79 271.14 311.82 254.88 315.13 214.54C292.26 206.08 275.91 200.32 256.00 184.64Z" fill="url(#cv)"/>
<path d="M256.00 46.00C193.88 91.39 151.38 108.93 77.26 126.19L139.79 171.05C196.23 154.41 208.00 144.15 256.00 119.40L256.00 46.00Z" fill="#155D5B" fill-opacity="0.000"/>
<path d="M256.00 46.00L256.00 119.40C304.00 144.15 315.77 154.41 372.21 171.05L434.74 126.19C360.62 108.93 318.12 91.39 256.00 46.00Z" fill="#155D5B" fill-opacity="0.311"/>
<path d="M139.79 171.05L77.26 126.19C57.93 232.70 93.90 410.36 256.00 466.00L256.00 392.60C150.48 354.96 122.89 200.21 139.79 171.05Z" fill="#155D5B" fill-opacity="0.224"/>
<path d="M256.00 392.60L256.00 466.00C328.87 440.99 376.25 391.32 404.58 334.53L350.04 301.49C330.73 340.52 300.20 376.84 256.00 392.60Z" fill="#2DB3A4" fill-opacity="0.550"/>
<path d="M434.74 126.19L372.21 171.05C378.06 181.13 378.58 206.24 372.40 236.32L428.33 270.22C441.42 219.02 442.20 167.31 434.74 126.19Z" fill="#155D5B" fill-opacity="0.363"/>
<path d="M256.00 184.64C236.09 200.32 219.74 206.08 196.87 214.54C200.18 254.88 185.21 271.14 256.00 321.92L256.00 184.64Z" fill="#2DB3A4" fill-opacity="0.424"/>
<path d="M256.00 184.64L256.00 321.92C326.79 271.14 311.82 254.88 315.13 214.54C292.26 206.08 275.91 200.32 256.00 184.64Z" fill="#155D5B" fill-opacity="0.183"/>
</svg>
<path d="M275.4 143.7Q265.4 143.7 256.9 140.5Q248.5 137.3 242.3 131.4Q236.1 125.6 232.6 117.6Q229.2 109.6 229.2 100.0Q229.2 90.4 232.6 82.4Q236.1 74.4 242.3 68.6Q248.5 62.7 256.9 59.5Q265.4 56.3 275.4 56.3Q287.0 56.3 296.2 60.4Q305.4 64.5 311.5 72.2L296.4 85.8Q292.3 81.0 287.4 78.5Q282.6 76.0 276.6 76.0Q271.4 76.0 267.1 77.7Q262.8 79.4 259.7 82.5Q256.6 85.7 254.9 90.2Q253.2 94.6 253.2 100.0Q253.2 105.4 254.9 109.8Q256.6 114.3 259.7 117.5Q262.8 120.6 267.1 122.3Q271.4 124.0 276.6 124.0Q282.6 124.0 287.4 121.5Q292.3 119.0 296.4 114.2L311.5 127.8Q305.4 135.4 296.2 139.5Q287.0 143.7 275.4 143.7Z M367.0 143.7Q357.0 143.7 348.4 140.4Q339.9 137.2 333.6 131.3Q327.3 125.3 323.8 117.4Q320.4 109.5 320.4 100.0Q320.4 90.5 323.8 82.6Q327.3 74.7 333.6 68.7Q339.9 62.8 348.4 59.6Q357.0 56.3 367.0 56.3Q377.2 56.3 385.7 59.6Q394.2 62.8 400.4 68.7Q406.6 74.7 410.2 82.6Q413.7 90.5 413.7 100.0Q413.7 109.5 410.2 117.5Q406.6 125.4 400.4 131.3Q394.2 137.2 385.7 140.4Q377.2 143.7 367.0 143.7ZM367.0 124.0Q371.8 124.0 376.0 122.3Q380.1 120.6 383.2 117.5Q386.2 114.3 388.0 109.8Q389.7 105.4 389.7 100.0Q389.7 94.5 388.0 90.1Q386.2 85.7 383.2 82.5Q380.1 79.4 376.0 77.7Q371.8 76.0 367.0 76.0Q362.2 76.0 358.1 77.7Q354.0 79.4 350.9 82.5Q347.8 85.7 346.1 90.1Q344.4 94.5 344.4 100.0Q344.4 105.4 346.1 109.8Q347.8 114.3 350.9 117.5Q354.0 120.6 358.1 122.3Q362.2 124.0 367.0 124.0Z M455.6 142.0 419.7 58.0H445.4L475.6 130.7H460.5L491.5 58.0H515.0L479.0 142.0Z M515.2 142.0 552.3 58.0H575.7L612.9 142.0H588.2L559.2 69.6H568.5L539.5 142.0ZM535.5 125.7 541.6 108.2H582.7L588.8 125.7Z M623.2 142.0V58.0H647.0V123.2H687.1V142.0Z M700.0 142.0V58.0H723.8V142.0Z M744.3 142.0V58.0H784.0Q798.0 58.0 808.5 63.2Q819.1 68.3 825.0 77.7Q831.0 87.0 831.0 100.0Q831.0 112.8 825.0 122.3Q819.1 131.7 808.5 136.8Q798.0 142.0 784.0 142.0ZM768.1 123.0H783.1Q790.3 123.0 795.6 120.3Q801.0 117.6 804.0 112.4Q807.0 107.2 807.0 100.0Q807.0 92.7 804.0 87.5Q801.0 82.4 795.6 79.7Q790.3 77.0 783.1 77.0H768.1Z M837.0 142.0 874.0 58.0H897.4L934.6 142.0H909.9L880.9 69.6H890.2L861.2 142.0ZM857.2 125.7 863.4 108.2H904.4L910.5 125.7Z" fill="#2F4F4F"/>
</svg>