<svg xmlns="http://www.w3.org/2000/svg" viewBox="-28.0 -28.0 597.1 424.0">
<svg x="158.0" y="0.0" width="225.0" height="260.0" viewBox="74.3 46.0 363.5 420.0">
<defs><linearGradient id="cv" gradientUnits="userSpaceOnUse" x1="118.0" y1="60.0" x2="420.0" y2="430.0"><stop offset="0.0" stop-color="#2DB3A4"/><stop offset="0.38" stop-color="#25A699"/><stop offset="0.68" stop-color="#1A847F"/><stop offset="1.0" stop-color="#155D5B"/></linearGradient></defs>
<path d="M256.00 46.00C193.88 91.39 151.38 108.93 77.26 126.19C57.93 232.70 93.90 410.36 256.00 466.00C328.87 440.99 376.25 391.32 404.58 334.53L350.04 301.49C330.73 340.52 300.20 376.84 256.00 392.60C150.48 354.96 122.89 200.21 139.79 171.05C196.23 154.41 208.00 144.15 256.00 119.40C304.00 144.15 315.77 154.41 372.21 171.05C378.06 181.13 378.58 206.24 372.40 236.32L428.33 270.22C441.42 219.02 442.20 167.31 434.74 126.19C360.62 108.93 318.12 91.39 256.00 46.00Z M256.00 184.64C236.09 200.32 219.74 206.08 196.87 214.54C200.18 254.88 185.21 271.14 256.00 321.92C326.79 271.14 311.82 254.88 315.13 214.54C292.26 206.08 275.91 200.32 256.00 184.64Z" fill="url(#cv)"/>
<path d="M256.00 46.00C193.88 91.39 151.38 108.93 77.26 126.19L139.79 171.05C196.23 154.41 208.00 144.15 256.00 119.40L256.00 46.00Z" fill="#155D5B" fill-opacity="0.000"/>
<path d="M256.00 46.00L256.00 119.40C304.00 144.15 315.77 154.41 372.21 171.05L434.74 126.19C360.62 108.93 318.12 91.39 256.00 46.00Z" fill="#155D5B" fill-opacity="0.311"/>
<path d="M139.79 171.05L77.26 126.19C57.93 232.70 93.90 410.36 256.00 466.00L256.00 392.60C150.48 354.96 122.89 200.21 139.79 171.05Z" fill="#155D5B" fill-opacity="0.224"/>
<path d="M256.00 392.60L256.00 466.00C328.87 440.99 376.25 391.32 404.58 334.53L350.04 301.49C330.73 340.52 300.20 376.84 256.00 392.60Z" fill="#2DB3A4" fill-opacity="0.550"/>
<path d="M434.74 126.19L372.21 171.05C378.06 181.13 378.58 206.24 372.40 236.32L428.33 270.22C441.42 219.02 442.20 167.31 434.74 126.19Z" fill="#155D5B" fill-opacity="0.363"/>
<path d="M256.00 184.64C236.09 200.32 219.74 206.08 196.87 214.54C200.18 254.88 185.21 271.14 256.00 321.92L256.00 184.64Z" fill="#2DB3A4" fill-opacity="0.424"/>
<path d="M256.00 184.64L256.00 321.92C326.79 271.14 311.82 254.88 315.13 214.54C292.26 206.08 275.91 200.32 256.00 184.64Z" fill="#155D5B" fill-opacity="0.183"/>
</svg>
<path d="M37.1 369.2Q29.8 369.2 23.5 366.9Q17.3 364.5 12.7 360.2Q8.1 355.9 5.6 350.0Q3.0 344.1 3.0 337.0Q3.0 329.9 5.6 324.0Q8.1 318.1 12.7 313.8Q17.3 309.5 23.5 307.1Q29.8 304.8 37.1 304.8Q45.7 304.8 52.5 307.8Q59.3 310.8 63.8 316.5L52.6 326.5Q49.6 323.0 46.0 321.1Q42.4 319.3 38.0 319.3Q34.2 319.3 31.0 320.5Q27.8 321.8 25.6 324.1Q23.3 326.5 22.0 329.7Q20.7 333.0 20.7 337.0Q20.7 341.0 22.0 344.3Q23.3 347.5 25.6 349.9Q27.8 352.2 31.0 353.5Q34.2 354.7 38.0 354.7Q42.4 354.7 46.0 352.9Q49.6 351.0 52.6 347.5L63.8 357.5Q59.3 363.1 52.5 366.2Q45.7 369.2 37.1 369.2Z M107.4 369.2Q100.0 369.2 93.7 366.8Q87.4 364.5 82.8 360.1Q78.1 355.7 75.6 349.8Q73.0 344.0 73.0 337.0Q73.0 330.0 75.6 324.2Q78.1 318.3 82.8 313.9Q87.4 309.5 93.7 307.2Q100.0 304.8 107.4 304.8Q115.0 304.8 121.2 307.2Q127.5 309.5 132.1 313.9Q136.7 318.3 139.3 324.2Q141.9 330.0 141.9 337.0Q141.9 344.0 139.3 349.9Q136.7 355.8 132.1 360.1Q127.5 364.5 121.2 366.8Q115.0 369.2 107.4 369.2ZM107.4 354.7Q111.0 354.7 114.0 353.5Q117.1 352.2 119.4 349.9Q121.6 347.5 122.9 344.3Q124.2 341.0 124.2 337.0Q124.2 332.9 122.9 329.7Q121.6 326.5 119.4 324.1Q117.1 321.8 114.0 320.5Q111.0 319.3 107.4 319.3Q103.9 319.3 100.8 320.5Q97.8 321.8 95.5 324.1Q93.3 326.5 92.0 329.7Q90.7 332.9 90.7 337.0Q90.7 341.0 92.0 344.3Q93.3 347.5 95.5 349.9Q97.8 352.2 100.8 353.5Q103.9 354.7 107.4 354.7Z M175.5 368.0 149.0 306.0H167.9L190.3 359.7H179.1L201.9 306.0H219.3L192.7 368.0Z M222.1 368.0 249.5 306.0H266.8L294.2 368.0H276.0L254.6 314.6H261.5L240.0 368.0ZM237.1 356.0 241.6 343.0H271.9L276.4 356.0Z M304.5 368.0V306.0H322.0V354.1H351.6V368.0Z M363.9 368.0V306.0H381.4V368.0Z M399.2 368.0V306.0H428.5Q438.8 306.0 446.6 309.8Q454.4 313.6 458.8 320.5Q463.1 327.4 463.1 337.0Q463.1 346.5 458.8 353.4Q454.4 360.4 446.6 364.2Q438.8 368.0 428.5 368.0ZM416.7 354.0H427.8Q433.1 354.0 437.1 352.0Q441.0 350.0 443.2 346.2Q445.4 342.3 445.4 337.0Q445.4 331.6 443.2 327.8Q441.0 324.0 437.1 322.0Q433.1 320.0 427.8 320.0H416.7Z M470.2 368.0 497.6 306.0H514.9L542.3 368.0H524.1L502.6 314.6H509.6L488.1 368.0ZM485.2 356.0 489.7 343.0H520.0L524.5 356.0Z" fill="#FFFFFF"/>
</svg>