<svg xmlns="http://www.w3.org/2000/svg" viewBox="0 0 512 512">
  <rect width="512" height="512" fill="#FFFFFF"/>
  <g stroke="#ECEEF1" stroke-width="1"><line x1="0" y1="0" x2="0" y2="512"/><line x1="0" y1="0" x2="512" y2="0"/><line x1="32" y1="0" x2="32" y2="512"/><line x1="0" y1="32" x2="512" y2="32"/><line x1="64" y1="0" x2="64" y2="512"/><line x1="0" y1="64" x2="512" y2="64"/><line x1="96" y1="0" x2="96" y2="512"/><line x1="0" y1="96" x2="512" y2="96"/><line x1="128" y1="0" x2="128" y2="512"/><line x1="0" y1="128" x2="512" y2="128"/><line x1="160" y1="0" x2="160" y2="512"/><line x1="0" y1="160" x2="512" y2="160"/><line x1="192" y1="0" x2="192" y2="512"/><line x1="0" y1="192" x2="512" y2="192"/><line x1="224" y1="0" x2="224" y2="512"/><line x1="0" y1="224" x2="512" y2="224"/><line x1="256" y1="0" x2="256" y2="512"/><line x1="0" y1="256" x2="512" y2="256"/><line x1="288" y1="0" x2="288" y2="512"/><line x1="0" y1="288" x2="512" y2="288"/><line x1="320" y1="0" x2="320" y2="512"/><line x1="0" y1="320" x2="512" y2="320"/><line x1="352" y1="0" x2="352" y2="512"/><line x1="0" y1="352" x2="512" y2="352"/><line x1="384" y1="0" x2="384" y2="512"/><line x1="0" y1="384" x2="512" y2="384"/><line x1="416" y1="0" x2="416" y2="512"/><line x1="0" y1="416" x2="512" y2="416"/><line x1="448" y1="0" x2="448" y2="512"/><line x1="0" y1="448" x2="512" y2="448"/><line x1="480" y1="0" x2="480" y2="512"/><line x1="0" y1="480" x2="512" y2="480"/><line x1="512" y1="0" x2="512" y2="512"/><line x1="0" y1="512" x2="512" y2="512"/></g>
  <g fill="none" stroke="#C3C8CE" stroke-width="1">
    <circle cx="256.0" cy="253.3" r="72"/>
    <circle cx="256.0" cy="253.3" r="150"/>
    <circle cx="256.0" cy="253.3" r="216"/>
  </g>
  <path d="M256.00 46.00C193.88 91.39 151.38 108.93 77.26 126.19C57.93 232.70 93.90 410.36 256.00 466.00C328.87 440.99 376.25 391.32 404.58 334.53L350.04 301.49C330.73 340.52 300.20 376.84 256.00 392.60C150.48 354.96 122.89 200.21 139.79 171.05C196.23 154.41 208.00 144.15 256.00 119.40C304.00 144.15 315.77 154.41 372.21 171.05C378.06 181.13 378.58 206.24 372.40 236.32L428.33 270.22C441.42 219.02 442.20 167.31 434.74 126.19C360.62 108.93 318.12 91.39 256.00 46.00Z M256.00 184.64C236.09 200.32 219.74 206.08 196.87 214.54C200.18 254.88 185.21 271.14 256.00 321.92C326.79 271.14 311.82 254.88 315.13 214.54C292.26 206.08 275.91 200.32 256.00 184.64Z" fill="#D6DADF" stroke="#82898F" stroke-width="1.6"/>
  <g stroke="#6A727B" stroke-width="1.4" stroke-dasharray="6 4" fill="none"><line x1="256.0" y1="46.0" x2="256.0" y2="119.4"/><line x1="256.0" y1="466.0" x2="256.0" y2="392.6"/><line x1="77.3" y1="126.2" x2="139.8" y2="171.0"/><line x1="434.7" y1="126.2" x2="372.2" y2="171.0"/><line x1="256.0" y1="184.6" x2="256.0" y2="321.9"/></g>
  <g stroke="#AEB4BC" stroke-width="1" stroke-dasharray="7 5" fill="none"><line x1="16" y1="46" x2="496" y2="46"/><line x1="16" y1="119" x2="496" y2="119"/><line x1="16" y1="126" x2="496" y2="126"/><line x1="16" y1="171" x2="496" y2="171"/><line x1="16" y1="185" x2="496" y2="185"/><line x1="16" y1="322" x2="496" y2="322"/><line x1="16" y1="393" x2="496" y2="393"/><line x1="16" y1="466" x2="496" y2="466"/><line x1="77" y1="16" x2="77" y2="496"/><line x1="140" y1="16" x2="140" y2="496"/><line x1="256" y1="16" x2="256" y2="496"/><line x1="372" y1="16" x2="372" y2="496"/><line x1="435" y1="16" x2="435" y2="496"/></g>
  <g stroke="#B9BFC7" stroke-width="1" fill="none"><line x1="305.3" y1="195.7" x2="495.4" y2="310.9"/><line x1="284.6" y1="261.8" x2="470.0" y2="374.2"/><line x1="2.2" y1="72.4" x2="214.8" y2="224.9"/><line x1="509.8" y1="72.4" x2="297.2" y2="224.9"/></g>
</svg>