<svg xmlns="http://www.w3.org/2000/svg" viewBox="0 0 512 512">
<circle cx="256" cy="256" r="236" fill="#155D5B"/>
<g transform="translate(256 256) scale(3.4)"><g stroke="#FFFFFF" stroke-width="6.5" fill="none" stroke-linecap="round"><rect x="-25" y="-25" width="50" height="50" rx="7"/><line x1="-25" y1="-14" x2="-37" y2="-14"/><line x1="25" y1="-14" x2="37" y2="-14"/><line x1="-14" y1="-25" x2="-14" y2="-37"/><line x1="-14" y1="25" x2="-14" y2="37"/><line x1="-25" y1="0" x2="-37" y2="0"/><line x1="25" y1="0" x2="37" y2="0"/><line x1="0" y1="-25" x2="0" y2="-37"/><line x1="0" y1="25" x2="0" y2="37"/><line x1="-25" y1="14" x2="-37" y2="14"/><line x1="25" y1="14" x2="37" y2="14"/><line x1="14" y1="-25" x2="14" y2="-37"/><line x1="14" y1="25" x2="14" y2="37"/><circle cx="-37" cy="-14" r="3.4" fill="#FFFFFF" stroke="none"/><circle cx="37" cy="-14" r="3.4" fill="#FFFFFF" stroke="none"/><circle cx="-14" cy="-37" r="3.4" fill="#FFFFFF" stroke="none"/><circle cx="-14" cy="37" r="3.4" fill="#FFFFFF" stroke="none"/><circle cx="-37" cy="14" r="3.4" fill="#FFFFFF" stroke="none"/><circle cx="37" cy="14" r="3.4" fill="#FFFFFF" stroke="none"/><circle cx="14" cy="-37" r="3.4" fill="#FFFFFF" stroke="none"/><circle cx="14" cy="37" r="3.4" fill="#FFFFFF" stroke="none"/></g><path d="M-16.7 11.0 -7.3 -10.0H-2.5L6.9 11.0H1.8L-5.9 -7.5H-4.0L-11.7 11.0ZM-12.0 6.5 -10.7 2.8H0.1L1.4 6.5Z M9.1 11.0V-10.0H13.9V11.0Z" fill="#FFFFFF"/></g>
</svg>